<?xml version="1.0" standalone="no"?>
<!DOCTYPE svg PUBLIC "-//W3C//DTD SVG 20010904//EN"
 "http://www.w3.org/TR/2001/REC-SVG-20010904/DTD/svg10.dtd">
<svg version="1.0" xmlns="http://www.w3.org/2000/svg"
 width="395.000000pt" height="395.000000pt" viewBox="0 0 395.000000 395.000000"
 preserveAspectRatio="xMidYMid meet">
<metadata>
Created by potrace 1.14, written by Peter Selinger 2001-2017
</metadata>
<g transform="translate(0.000000,395.000000) scale(0.100000,-0.100000)"
fill="#000000" stroke="none">
<path d="M1817 3715 c6 -18 5 -19 -12 -5 -11 9 -16 10 -11 3 4 -7 3 -13 -1
-13 -5 0 -15 6 -22 13 -11 10 -13 10 -7 0 5 -9 -3 -13 -29 -13 -25 0 -34 -4
-29 -12 4 -7 3 -8 -4 -4 -6 4 -26 9 -43 11 -22 3 -29 0 -26 -9 5 -12 -27 -16
-38 -4 -11 11 -46 -4 -41 -18 3 -8 0 -11 -9 -7 -8 3 -12 10 -8 17 4 6 -1 5
-10 -3 -13 -11 -17 -11 -17 -1 0 8 -3 10 -6 7 -4 -4 -2 -12 4 -19 8 -10 1 -13
-31 -13 -25 0 -47 -6 -54 -15 -11 -13 -12 -12 -13 5 0 17 -2 17 -10 5 -5 -8
-10 -11 -10 -6 0 5 -7 3 -15 -4 -8 -6 -20 -8 -27 -4 -9 6 -9 3 1 -9 12 -15 12
-17 -4 -11 -14 6 -16 4 -10 -6 6 -9 4 -11 -5 -5 -7 4 -16 2 -21 -6 -7 -11 -9
-11 -9 -1 0 7 -5 10 -10 7 -6 -4 -7 -12 -3 -18 5 -8 2 -8 -9 1 -13 10 -18 9
-29 -5 -13 -17 -13 -17 5 -3 18 14 18 14 6 -7 -12 -19 -15 -20 -25 -6 -11 14
-15 13 -36 -8 -13 -13 -35 -25 -49 -25 -34 -2 -34 -2 -22 -17 8 -10 6 -13 -8
-14 -14 -1 -17 3 -13 15 4 13 2 12 -10 -3 -12 -16 -13 -23 -4 -35 10 -13 10
-13 -5 -2 -19 15 -35 9 -56 -20 -12 -16 -17 -17 -30 -6 -10 7 -14 9 -10 4 4
-5 3 -17 -3 -28 -9 -16 -13 -17 -26 -7 -12 11 -14 10 -12 -2 2 -7 -9 -26 -24
-41 -33 -33 -36 -25 -4 11 l22 26 -25 -20 c-33 -26 -40 -37 -32 -50 3 -5 -2
-4 -11 3 -14 12 -16 11 -12 -7 3 -15 0 -18 -12 -14 -12 5 -14 3 -8 -7 6 -10 4
-12 -9 -7 -14 5 -17 3 -12 -8 5 -14 -9 -20 -39 -16 -5 1 -1 -6 10 -14 19 -15
19 -16 -12 -10 -20 3 -33 1 -33 -5 0 -6 5 -8 10 -5 6 3 10 1 10 -4 0 -6 -7
-11 -16 -11 -11 0 -15 -6 -11 -20 3 -10 2 -19 -2 -18 -21 2 -31 -3 -25 -14 4
-7 4 -10 -1 -6 -4 4 -14 0 -22 -8 -8 -8 -20 -11 -26 -7 -7 4 -5 -2 3 -12 12
-15 12 -17 1 -10 -11 6 -13 4 -7 -10 6 -16 4 -16 -11 -4 -15 12 -16 12 -10 -3
5 -14 1 -18 -16 -18 -13 0 -17 -3 -10 -8 8 -5 6 -14 -8 -31 -10 -13 -19 -19
-19 -14 0 5 5 14 11 20 8 8 7 13 -2 18 -7 5 -10 4 -6 -2 4 -6 0 -16 -8 -23
-12 -10 -13 -16 -4 -26 6 -8 10 -14 8 -15 -2 0 -13 -2 -23 -4 -22 -4 -40 -28
-26 -33 6 -2 7 -8 4 -13 -4 -6 -11 -6 -19 1 -10 8 -15 8 -21 -1 -4 -7 -3 -9 3
-6 6 4 11 -4 11 -18 0 -23 -2 -24 -13 -8 -11 15 -13 13 -10 -14 2 -28 0 -31
-14 -23 -14 7 -17 4 -15 -21 2 -26 0 -28 -14 -17 -14 12 -14 10 -2 -12 13 -24
12 -24 -5 -10 -10 8 -16 10 -12 3 4 -7 0 -17 -10 -23 -13 -9 -14 -10 -2 -7 9
3 16 -1 16 -8 0 -8 -5 -13 -11 -12 -6 1 -11 -6 -11 -15 0 -10 -7 -23 -15 -30
-12 -11 -12 -11 -2 3 9 12 9 16 -2 16 -14 0 -14 -26 0 -50 5 -7 0 -6 -11 3
-17 14 -18 14 -5 -10 13 -24 12 -24 -6 -10 -10 8 -16 10 -12 6 4 -5 2 -16 -5
-24 -10 -13 -9 -14 2 -8 9 6 12 5 9 -5 -3 -8 -11 -13 -18 -11 -11 3 -11 0 0
-13 11 -13 10 -14 -5 -9 -14 6 -16 4 -9 -7 14 -23 13 -38 -3 -32 -13 5 -14 3
-3 -18 12 -21 12 -23 -3 -11 -13 11 -15 10 -13 -12 2 -15 -1 -26 -6 -26 -5 0
-6 -5 -3 -10 4 -6 11 -7 17 -4 7 4 8 2 4 -5 -4 -6 -12 -9 -17 -6 -5 4 -12 -8
-15 -25 -4 -17 -11 -33 -15 -36 -5 -3 -9 -11 -9 -17 0 -7 4 -6 10 3 5 8 10 10
10 5 0 -6 -5 -16 -10 -21 -6 -6 -12 -29 -13 -52 -1 -35 -3 -38 -14 -24 -12 15
-12 15 -6 -3 3 -11 11 -23 17 -27 6 -4 0 -8 -14 -9 -14 0 -19 -3 -13 -6 7 -2
13 -14 13 -24 0 -13 -4 -18 -12 -13 -10 6 -10 4 0 -7 15 -16 16 -30 1 -27 -6
2 -14 -4 -16 -12 -4 -13 -3 -13 6 0 6 8 11 13 12 10 0 -3 2 -13 4 -23 2 -9 -1
-15 -6 -11 -5 3 -9 -1 -9 -10 0 -8 6 -17 13 -19 9 -4 9 -6 0 -6 -7 -1 -13 -8
-13 -16 0 -8 -5 -15 -12 -15 -6 0 0 -10 13 -21 l24 -21 -25 7 c-24 7 -24 7 -5
-9 l20 -15 -20 -2 c-17 -1 -16 -2 5 -9 18 -6 20 -8 7 -9 -11 -1 -17 -7 -14
-13 2 -7 10 -12 17 -10 11 3 11 0 0 -12 -9 -12 -10 -19 -1 -29 11 -14 5 -27
-13 -27 -6 0 -5 4 3 9 8 5 9 11 3 15 -16 10 -22 -21 -7 -34 8 -6 11 -19 8 -27
-5 -12 -3 -14 8 -8 11 7 12 6 2 -7 -7 -8 -10 -18 -6 -22 4 -4 -1 -4 -11 0 -14
5 -17 4 -12 -4 4 -7 15 -12 24 -13 11 -1 8 -4 -8 -9 -15 -5 -18 -8 -9 -9 9 -1
20 -8 23 -17 5 -13 3 -14 -7 -6 -12 10 -13 3 -8 -51 1 -5 5 -6 9 -3 5 3 9 -1
9 -9 0 -8 -4 -12 -9 -9 -4 3 -8 1 -8 -5 0 -5 8 -12 17 -14 17 -4 17 -5 1 -6
-20 -1 -24 -16 -6 -27 7 -5 8 -2 3 7 -5 8 -4 11 1 6 14 -13 11 -41 -6 -55 -13
-11 -13 -12 0 -10 8 2 14 -3 12 -9 -1 -7 2 -13 8 -13 5 0 10 -5 10 -11 0 -5
-4 -8 -8 -5 -11 7 -8 -31 3 -41 4 -5 5 -1 0 7 -6 12 -5 13 5 3 16 -15 23 -46
9 -37 -5 3 -6 10 -3 16 4 7 2 8 -4 4 -12 -7 -5 -36 9 -36 4 0 5 -7 2 -17 -4
-11 -3 -14 5 -9 8 5 10 1 5 -10 -5 -13 -3 -15 8 -9 8 4 11 5 7 0 -4 -4 -3 -17
3 -28 7 -12 7 -17 1 -13 -5 3 -13 -1 -16 -10 -3 -8 -2 -12 4 -9 9 6 14 -8 11
-27 0 -5 3 -8 9 -8 5 0 10 -7 10 -16 0 -9 -5 -12 -12 -8 -7 4 -8 3 -4 -5 4 -6
12 -8 18 -5 7 5 9 1 5 -9 -4 -11 -1 -17 8 -17 8 0 15 -5 15 -11 0 -5 -5 -7
-12 -3 -7 4 -8 3 -4 -4 4 -7 15 -12 24 -13 12 0 11 -3 -5 -9 -28 -11 -30 -20
-3 -15 11 2 23 -1 26 -7 4 -7 2 -8 -4 -4 -7 4 -12 2 -12 -3 0 -6 4 -11 9 -11
5 0 11 -7 14 -14 4 -9 1 -14 -6 -12 -7 1 -9 1 -4 -1 4 -3 5 -9 1 -14 -3 -5 2
-12 10 -15 9 -3 16 -15 16 -26 0 -12 4 -17 12 -12 7 5 9 2 5 -9 -4 -12 -2 -14
10 -10 13 5 15 1 11 -20 -3 -14 -2 -26 1 -25 19 2 30 -4 35 -18 6 -15 4 -15
-11 -3 -16 12 -17 12 -6 -2 7 -9 9 -20 5 -24 -4 -5 -1 -5 5 -1 7 4 21 2 30 -4
17 -11 17 -11 1 -6 -10 3 -18 1 -18 -4 0 -6 8 -10 19 -10 11 0 21 -9 24 -22 6
-22 6 -22 -9 -4 -11 16 -16 17 -27 7 -6 -7 -7 -11 -2 -10 6 2 26 -7 45 -20 19
-13 27 -20 17 -17 -11 4 -16 2 -11 -5 3 -6 15 -9 25 -6 10 3 18 2 17 -2 -3
-23 4 -41 15 -39 6 2 11 -3 9 -9 -1 -7 2 -13 8 -13 5 0 10 -9 10 -20 0 -18 10
-24 32 -21 3 0 5 -11 3 -24 -1 -13 1 -22 6 -20 4 3 17 -7 29 -22 21 -27 22
-27 15 -4 -5 16 -4 21 4 17 6 -4 11 -14 11 -22 0 -8 5 -14 11 -14 5 0 7 -5 4
-10 -3 -6 4 -10 17 -10 23 -1 23 -1 3 -16 -19 -14 -19 -15 10 -10 26 5 31 2
32 -15 3 -29 21 -48 44 -44 12 2 19 -2 19 -11 0 -8 -4 -12 -10 -9 -5 3 -10 1
-10 -5 0 -7 6 -10 14 -7 14 6 40 -15 31 -25 -3 -2 2 -5 10 -5 13 0 13 3 -1 18
-12 13 -12 19 -3 25 7 4 10 3 6 -3 -4 -6 0 -16 8 -23 8 -7 15 -18 15 -25 0 -7
7 -16 16 -19 15 -6 15 -4 3 11 -7 10 5 0 27 -22 21 -22 37 -44 35 -49 -2 -5 2
-5 9 -1 10 6 6 13 -13 27 -15 11 -27 24 -27 29 0 5 15 -6 34 -24 26 -27 37
-32 47 -23 9 8 10 8 5 -1 -3 -6 -2 -14 4 -18 6 -4 8 -10 5 -15 -3 -4 5 -6 17
-2 16 4 19 2 13 -8 -5 -8 -4 -11 3 -6 6 3 16 -2 22 -11 11 -17 11 -17 6 0 -3
9 -1 17 4 17 6 0 10 -7 10 -15 0 -14 11 -19 26 -12 10 4 25 -33 18 -45 -5 -7
-3 -8 5 -4 7 5 10 14 7 22 -3 7 0 16 7 20 7 4 9 4 5 -1 -11 -12 21 -37 48 -37
16 0 23 -5 20 -13 -3 -8 2 -11 15 -8 10 3 19 1 19 -5 0 -5 9 -12 20 -15 11 -3
18 -1 14 4 -3 5 2 6 10 3 9 -3 13 -11 9 -16 -4 -7 4 -9 21 -6 18 4 29 1 33 -8
4 -11 9 -12 18 -4 10 8 15 8 21 -1 5 -8 3 -10 -7 -4 -8 5 -5 -1 5 -13 21 -25
36 -31 16 -7 -10 12 -10 15 4 15 9 0 16 -5 16 -11 0 -8 6 -7 17 2 11 10 14 10
9 2 -5 -9 1 -13 18 -13 14 0 26 -4 26 -9 0 -5 13 -7 30 -6 16 1 38 -3 47 -10
15 -11 21 -11 35 2 16 14 18 14 24 -1 5 -14 9 -15 15 -4 7 11 9 11 9 -1 0 -11
3 -11 17 0 9 8 14 9 10 3 -4 -7 0 -15 9 -18 9 -4 13 -2 8 5 -4 7 -1 10 7 7 8
-3 13 -11 12 -17 -4 -17 14 -13 21 5 4 10 2 13 -6 8 -7 -4 -8 -3 -4 4 10 16
26 15 26 -2 0 -10 7 -12 22 -8 16 4 19 2 13 -9 -7 -11 -6 -12 6 -2 8 7 25 10
37 6 17 -4 22 -1 22 13 0 14 3 16 9 6 4 -7 12 -12 17 -11 21 4 35 -2 29 -11
-3 -6 1 -7 9 -4 9 3 13 11 10 16 -4 6 3 5 15 -1 16 -9 21 -9 21 1 1 8 7 5 15
-6 13 -17 15 -18 15 -3 0 21 8 21 31 1 16 -15 17 -14 12 8 -5 23 -5 23 11 3
10 -11 15 -15 12 -8 -4 6 -2 14 3 17 5 3 11 -4 14 -16 l6 -22 27 24 c15 14 24
19 20 13 -5 -9 -2 -11 8 -7 9 3 13 11 9 18 -3 6 -3 8 2 4 4 -4 15 -2 24 5 14
10 14 10 3 -4 -11 -15 -10 -17 13 -15 14 0 25 7 25 15 0 11 4 10 13 -4 11 -14
16 -15 22 -5 6 9 4 11 -5 5 -9 -5 -11 -4 -6 4 4 6 13 8 19 4 23 -14 38 -11 47
10 5 12 9 16 9 8 1 -11 6 -9 22 5 22 19 22 19 10 -6 -11 -23 -10 -23 15 5 26
29 27 29 20 5 -3 -14 -3 -19 0 -12 3 6 11 9 16 6 7 -5 8 -2 3 6 -5 9 -2 10 14
5 16 -5 21 -2 21 11 0 14 3 14 16 4 8 -8 14 -9 13 -4 -4 21 2 28 11 14 8 -12
10 -12 10 5 0 17 2 17 10 5 6 -9 10 -11 10 -3 0 7 7 10 15 7 8 -4 17 1 21 10
3 9 10 13 15 10 5 -3 7 -10 4 -15 -10 -15 2 -10 16 8 12 14 12 16 0 8 -10 -5
-12 -4 -7 3 4 7 18 12 31 12 34 0 56 10 48 24 -4 6 1 5 10 -2 14 -12 16 -11
12 7 -2 12 0 19 5 16 5 -3 12 -1 15 5 5 8 11 7 21 -1 12 -10 13 -9 8 5 -5 12
-2 15 12 9 9 -3 15 -2 12 3 -3 5 3 17 13 26 16 15 18 15 24 0 6 -14 9 -13 17
8 7 19 11 21 17 11 7 -10 10 -8 16 9 5 15 13 20 27 17 16 -5 17 -3 7 9 -10 13
-8 14 15 10 23 -4 26 -3 15 10 -10 12 -9 13 6 8 12 -5 16 -4 11 4 -3 6 3 13
14 17 12 4 17 11 13 18 -4 7 2 5 12 -3 17 -14 18 -13 13 2 -9 24 3 31 19 10
12 -16 13 -16 6 2 -4 13 -3 17 5 12 8 -5 10 -2 6 9 -5 11 -2 14 10 9 12 -5 15
-2 9 12 -3 9 -2 15 3 12 10 -5 45 27 38 36 -2 3 -1 4 3 1 3 -3 12 4 20 15 8
11 21 20 29 20 9 0 12 5 8 12 -5 8 0 9 14 6 12 -4 20 -2 17 2 -3 5 3 13 12 19
10 6 13 11 8 11 -6 0 -16 -5 -23 -12 -8 -8 -12 -8 -12 -1 0 12 29 28 44 24 5
-1 3 5 -4 14 -7 9 -9 15 -4 14 5 -1 17 -1 28 0 15 1 16 4 6 16 -8 10 -9 15 -2
15 6 0 16 -8 22 -18 9 -14 10 -13 4 7 -4 16 -3 21 5 17 7 -4 9 -1 5 7 -3 8 0
18 5 22 6 3 9 11 6 16 -3 5 1 6 9 3 11 -4 16 0 16 10 0 9 7 16 15 16 9 0 15 9
15 21 0 17 5 20 21 16 17 -4 19 -3 10 6 -13 13 -15 31 -2 22 6 -3 15 5 22 17
12 22 11 22 -7 8 -19 -14 -19 -14 0 8 11 12 16 22 11 22 -4 0 -2 7 5 15 15 18
45 21 34 3 -5 -7 -3 -8 5 -3 9 5 10 10 2 18 -14 14 -14 30 -1 22 6 -3 10 1 10
10 0 9 4 13 10 10 6 -4 8 6 6 25 -3 25 -1 28 11 19 11 -10 12 -8 7 5 -4 11 -2
16 7 14 10 -2 13 5 11 21 -3 17 0 21 10 15 9 -5 8 -2 -2 11 -14 17 -13 18 1
13 14 -5 17 -1 15 22 -2 21 1 27 10 20 8 -8 10 -3 6 16 -3 18 -1 25 6 20 6 -3
13 -2 16 3 4 5 1 13 -5 17 -8 5 -9 3 -4 -7 5 -8 4 -10 0 -6 -5 4 -10 14 -11
22 -2 11 2 12 15 5 16 -8 17 -5 13 17 -3 15 -1 24 5 20 5 -3 10 0 10 8 0 8 -4
12 -8 10 -4 -3 -6 3 -4 12 2 10 4 21 4 26 1 4 9 7 18 7 15 0 14 2 -3 15 -18
14 -18 14 3 10 15 -2 20 0 17 10 -3 7 -1 16 5 19 6 4 8 13 4 21 -3 8 1 15 8
15 7 0 9 3 6 6 -4 4 -15 1 -24 -7 -16 -12 -17 -12 -6 1 6 8 11 18 10 22 -1 4
6 16 15 28 17 19 11 26 -16 21 -5 -1 -4 5 4 13 15 19 24 21 14 4 -4 -6 -3 -8
4 -5 5 4 9 25 7 47 -2 28 0 38 8 34 7 -3 3 2 -7 10 -12 10 -15 16 -7 16 8 0
11 8 8 20 -3 11 0 23 5 27 7 4 8 1 3 -7 -6 -9 -4 -11 4 -5 9 5 9 11 3 17 -14
14 -3 40 12 31 6 -4 5 1 -3 10 -7 9 -18 14 -25 10 -7 -4 -6 -1 1 9 7 8 9 19 5
23 -4 5 1 5 11 2 13 -5 16 -3 10 6 -4 6 -8 17 -9 23 -1 6 -5 22 -9 35 -6 22
-6 22 6 6 13 -16 14 -16 14 7 0 13 -3 22 -7 20 -4 -3 -12 5 -18 16 -11 20 -10
21 12 9 20 -11 21 -10 11 3 -7 8 -10 18 -6 21 3 4 2 7 -3 7 -5 0 -10 9 -10 19
0 14 4 17 12 10 9 -8 11 -5 7 10 -3 12 -9 18 -14 15 -13 -8 -11 10 3 24 9 9 9
12 -1 12 -11 0 -11 3 -1 15 7 9 10 19 6 22 -4 4 -11 1 -16 -7 -6 -8 -10 -10
-10 -4 0 6 7 17 15 24 8 7 15 18 14 24 0 7 -2 6 -6 -1 -9 -25 -18 -12 -18 26
-1 22 3 37 7 35 4 -3 5 2 2 10 -3 9 -11 13 -17 9 -5 -3 -7 -1 -3 5 3 6 2 13
-3 17 -14 8 -2 36 13 29 6 -3 3 1 -6 9 -18 14 -25 33 -10 23 5 -3 9 1 9 9 0 8
-4 12 -9 9 -5 -3 -6 11 -4 30 3 20 1 34 -3 32 -4 -3 -13 -1 -21 5 -10 6 -11 9
-2 9 6 0 12 8 12 18 0 14 -2 15 -10 2 -8 -13 -10 -13 -10 2 0 9 6 19 13 21 7
3 5 6 -6 6 -15 1 -16 4 -6 24 12 21 11 21 -6 7 -11 -9 -16 -10 -11 -2 4 7 2
12 -6 12 -10 0 -10 2 1 9 9 6 10 10 2 16 -9 5 -9 11 1 23 11 13 11 14 -7 4
-17 -9 -21 -7 -21 8 0 12 5 16 15 12 14 -5 14 -4 1 10 -8 9 -19 13 -24 10 -5
-3 -6 0 -2 6 3 6 2 13 -4 17 -7 4 -7 12 0 25 9 16 7 18 -18 14 -15 -2 -22 -1
-17 3 6 5 17 17 25 28 11 16 11 17 0 8 -22 -20 -32 -15 -19 10 11 20 11 21 -4
8 -10 -7 -18 -11 -18 -7 -1 3 -2 9 -3 14 -1 4 -5 13 -10 21 -6 9 -5 12 2 7 6
-3 9 1 8 11 -2 9 -11 20 -21 23 -18 6 -18 7 0 18 18 11 17 12 -10 8 -29 -5
-29 -4 -10 10 l20 16 -20 -4 c-15 -2 -20 3 -20 19 0 12 -5 26 -9 30 -5 4 -6 2
-2 -4 4 -7 2 -13 -3 -13 -15 0 -14 27 1 32 7 3 -2 11 -19 18 -21 10 -28 17
-20 22 8 5 7 8 -5 8 -9 0 -25 14 -35 30 -9 17 -22 30 -27 30 -5 0 -6 3 -2 7 4
4 16 -3 27 -17 19 -24 20 -24 9 -2 -11 22 -48 44 -61 36 -3 -2 -5 8 -3 21 1
14 -2 23 -7 19 -5 -3 -9 0 -9 6 0 6 -5 8 -12 4 -8 -5 -8 -2 1 10 12 15 12 17
0 14 -8 -2 -13 3 -11 12 3 12 1 13 -9 3 -18 -18 -25 -16 -26 9 -2 18 0 20 7 8
5 -8 10 -10 10 -4 0 6 -8 18 -17 25 -11 10 -14 10 -9 2 4 -7 2 -13 -3 -13 -11
0 -15 15 -12 34 1 5 -6 3 -15 -5 -16 -12 -17 -12 -11 5 5 13 3 17 -7 13 -20
-8 -28 4 -14 20 9 11 8 13 -3 11 -8 -2 -13 3 -11 11 3 12 0 12 -12 2 -12 -10
-14 -9 -9 11 4 17 2 20 -5 9 -9 -12 -13 -12 -26 -2 -8 7 -18 21 -21 32 -4 10
-11 19 -16 19 -6 0 -7 -5 -3 -12 4 -7 3 -8 -5 -4 -9 6 -9 11 1 24 12 14 10 14
-12 2 -22 -12 -24 -12 -12 2 10 13 10 18 1 24 -8 4 -9 3 -5 -4 4 -7 2 -12 -3
-12 -11 0 -15 15 -12 34 1 5 -6 3 -15 -5 -12 -9 -15 -9 -10 -1 4 7 2 12 -4 12
-6 0 -9 4 -6 8 2 4 -3 8 -12 8 -29 1 -44 8 -68 32 -14 13 -29 20 -36 16 -7 -5
-9 -2 -6 7 3 8 -2 21 -10 29 -14 13 -15 12 -9 -3 3 -9 2 -17 -2 -17 -5 0 -12
7 -15 16 -4 10 -12 14 -22 10 -11 -4 -18 1 -21 14 -4 15 -11 19 -24 15 -13 -5
-17 -2 -14 7 3 8 -2 14 -12 14 -28 1 -46 8 -61 22 -8 7 -18 10 -23 7 -5 -4 -9
-1 -9 5 0 7 -8 9 -19 5 -13 -4 -28 3 -46 22 -14 15 -23 21 -20 13 4 -11 -1
-16 -14 -16 -14 0 -17 4 -11 11 6 8 5 12 -3 13 -33 3 -52 10 -52 20 0 6 -3 14
-7 17 -4 4 -5 -5 -3 -21 2 -16 2 -23 -1 -16 -3 6 -11 9 -16 6 -6 -4 -8 -2 -5
3 4 6 -7 16 -24 22 -27 9 -30 9 -19 -4 11 -13 10 -14 -4 -9 -9 3 -16 11 -16
16 0 6 -8 4 -17 -3 -15 -12 -16 -12 -11 2 5 13 2 16 -15 12 -18 -4 -19 -3 -7
6 8 6 10 11 4 11 -5 0 -15 -5 -22 -12 -9 -9 -12 -9 -12 2 0 13 -2 13 -10 0 -5
-8 -10 -10 -10 -4 0 7 -7 15 -16 18 -15 6 -15 4 -3 -10 13 -16 12 -16 -9 -5
-12 7 -20 17 -16 23 4 7 3 8 -4 4 -7 -4 -12 -15 -13 -24 -1 -11 -4 -8 -9 8 -4
14 -8 18 -9 10 -1 -9 -10 -16 -20 -16 -15 0 -17 3 -9 13 15 19 -2 16 -24 -4
-17 -15 -18 -15 -13 -1 8 20 -15 19 -41 -2 -14 -12 -16 -12 -9 -1 6 11 2 13
-19 7 -20 -5 -26 -4 -20 5 5 9 2 10 -9 6 -9 -3 -19 -2 -23 4 -4 6 -13 4 -26
-7 -16 -16 -21 -16 -28 -4 -6 8 -10 11 -10 5 0 -5 -5 -3 -10 5 -8 12 -10 12
-10 1 0 -11 -3 -11 -16 -1 -12 11 -15 11 -12 0 4 -17 -22 -20 -41 -6 -11 8
-13 8 -7 -1 11 -19 -5 -15 -20 5 -13 16 -14 16 -7 -3z m-435 -107 c-7 -7 -12
-8 -12 -2 0 14 12 26 19 19 2 -3 -1 -11 -7 -17z m432 -10 c-4 -6 -10 -5 -15 3
-6 10 -9 10 -9 2 0 -17 17 -25 25 -12 4 5 13 8 20 5 8 -3 19 2 25 10 15 16 30
19 30 3 0 -5 -5 -7 -12 -3 -7 5 -8 3 -4 -5 6 -9 13 -8 29 6 14 12 18 13 12 3
-8 -13 -7 -13 8 -1 13 10 17 10 17 1 0 -10 3 -10 15 0 12 10 15 10 15 -1 0
-11 2 -11 10 1 8 13 10 12 10 -4 0 -20 0 -20 15 0 8 11 14 14 15 6 0 -9 5 -10
19 -3 14 8 20 7 25 -4 6 -17 26 -20 26 -4 0 5 -6 7 -12 3 -7 -4 -9 -3 -5 1 9
11 39 16 33 6 -3 -4 4 -12 14 -18 15 -10 17 -9 13 10 -4 21 -4 21 8 3 12 -19
12 -19 26 0 14 18 15 18 8 -6 -7 -20 -5 -23 6 -14 15 11 25 11 52 0 9 -5 26
-6 37 -3 11 3 23 1 26 -4 3 -5 10 -7 15 -4 5 4 9 1 9 -6 0 -8 5 -7 17 2 11 10
14 10 9 2 -4 -8 -1 -13 9 -13 10 0 14 5 10 13 -4 6 2 2 13 -10 15 -17 22 -19
32 -10 10 9 11 9 5 -2 -6 -11 -3 -13 13 -9 12 4 20 3 17 -2 -3 -4 2 -11 11
-14 8 -3 13 -2 10 3 -4 5 3 7 14 4 11 -3 23 -10 27 -16 4 -6 1 -7 -8 -2 -8 5
-11 4 -6 0 11 -13 51 -14 58 -2 4 5 10 0 14 -13 5 -17 13 -21 31 -17 17 3 22
1 15 -7 -7 -8 -4 -12 10 -13 12 -1 17 3 13 10 -3 7 1 4 9 -6 9 -11 21 -15 32
-10 13 4 16 3 11 -5 -4 -7 -2 -13 3 -13 6 -1 16 -2 21 -3 6 0 15 -7 19 -15 5
-7 13 -11 19 -7 6 3 13 2 17 -4 4 -6 11 -7 17 -4 6 4 6 -2 -1 -15 -8 -14 -8
-21 -1 -21 5 0 10 5 10 11 0 5 5 7 10 4 6 -4 7 -12 3 -18 -4 -7 2 -5 12 3 11
9 16 10 11 3 -4 -8 -1 -13 8 -13 9 0 16 -4 16 -10 0 -5 6 -10 14 -10 8 0 18
-5 22 -12 5 -7 3 -8 -7 -3 -12 8 -12 6 0 -8 11 -14 16 -15 29 -5 9 7 13 8 10
3 -4 -6 1 -19 9 -30 15 -19 15 -19 8 5 -6 22 -4 21 13 -6 11 -18 26 -35 34
-40 9 -5 8 -2 -2 11 -14 18 -14 18 11 0 19 -14 23 -23 15 -28 -6 -5 -2 -7 11
-4 15 3 20 1 17 -8 -3 -7 0 -16 7 -21 7 -4 10 -3 6 3 -3 5 0 10 8 10 8 0 12
-4 10 -8 -7 -10 5 -39 17 -39 5 0 6 4 3 10 -3 6 1 7 10 3 9 -3 13 -9 8 -12 -4
-3 -9 -12 -11 -20 -3 -12 0 -12 13 -1 13 11 14 10 9 -5 -5 -12 -4 -16 3 -12 6
4 13 -3 16 -15 5 -19 8 -20 23 -7 10 8 15 9 11 2 -4 -6 -1 -15 7 -20 8 -4 15
-12 15 -18 1 -5 6 -11 11 -11 6 -1 12 -2 15 -3 3 0 0 -11 -6 -23 -12 -22 -11
-22 6 -8 17 14 18 13 13 -7 -4 -14 -2 -20 7 -17 6 3 18 -3 26 -12 9 -12 10
-15 2 -10 -7 4 -13 2 -13 -3 0 -6 6 -11 14 -11 8 0 18 -10 21 -21 6 -17 9 -19
16 -8 5 8 9 9 9 3 0 -6 -3 -14 -7 -18 -11 -10 -12 -37 -2 -30 5 3 7 11 3 17
-3 7 0 5 8 -4 7 -9 20 -14 28 -12 9 3 8 0 -3 -7 -17 -11 -18 -13 -1 -31 9 -10
22 -16 28 -12 6 4 4 -2 -4 -12 -9 -11 -10 -16 -2 -11 7 4 12 2 12 -4 0 -6 5
-8 13 -4 7 5 6 0 -3 -11 -12 -15 -12 -17 -1 -10 11 6 13 4 8 -9 -5 -13 -3 -17
7 -13 11 4 13 1 9 -10 -4 -10 -2 -14 5 -9 6 3 14 1 18 -5 4 -8 3 -9 -4 -5 -18
11 -14 -3 8 -26 22 -24 27 -43 8 -33 -7 4 -5 0 5 -8 14 -11 15 -16 5 -20 -9
-4 -8 -6 3 -6 16 -1 34 -27 30 -45 -1 -4 4 -15 11 -23 14 -17 20 -46 8 -38 -4
3 -6 -4 -3 -15 3 -11 9 -20 13 -20 5 0 7 -11 5 -25 -1 -14 2 -28 8 -32 6 -4 7
-1 2 7 -5 8 -4 11 2 7 6 -4 13 -18 15 -32 3 -13 2 -22 -3 -20 -16 11 -2 -26
17 -40 19 -15 19 -15 -1 -9 -19 5 -19 5 -2 -9 20 -17 21 -25 4 -46 -10 -12 -9
-13 2 -6 11 6 13 4 8 -8 -3 -9 -1 -19 5 -23 7 -5 8 -2 3 6 -6 9 -4 11 4 6 9
-6 8 -13 -6 -29 -10 -11 -12 -17 -5 -13 9 6 12 2 10 -10 -2 -11 2 -18 8 -17 8
2 9 -8 4 -32 -6 -28 -5 -35 7 -35 8 0 11 -5 8 -10 -4 -6 -11 -7 -17 -4 -6 4
-6 -2 1 -15 10 -18 9 -20 -6 -14 -15 5 -15 3 2 -10 11 -8 24 -13 29 -10 5 4 6
1 2 -6 -4 -6 -12 -9 -17 -6 -5 4 -9 1 -9 -4 0 -6 6 -11 13 -12 9 0 9 -2 -1 -6
-6 -2 -9 -10 -5 -16 12 -19 10 -31 -7 -39 -12 -5 -12 -7 3 -7 18 -1 23 -16 7
-26 -5 -3 -6 -13 -3 -22 4 -11 2 -14 -5 -9 -11 7 -9 -24 3 -44 3 -6 -1 -13
-10 -16 -14 -6 -14 -8 2 -20 10 -7 14 -14 9 -14 -5 0 -2 -8 5 -17 11 -15 11
-16 -1 -5 -18 16 -38 16 -22 0 14 -14 16 -62 2 -53 -5 3 -10 2 -10 -4 0 -5 6
-11 13 -14 10 -4 10 -7 0 -18 -7 -7 -13 -21 -13 -30 0 -10 6 -20 13 -22 7 -3
4 -6 -7 -6 -15 -1 -17 -7 -14 -31 3 -22 1 -30 -11 -30 -14 0 -14 -1 -1 -10 12
-8 12 -10 -5 -10 -18 -1 -19 -1 -2 -11 9 -5 17 -15 17 -22 0 -7 -4 -6 -10 3
-8 13 -10 12 -10 -3 0 -11 -4 -15 -12 -11 -7 5 -8 3 -2 -7 11 -18 14 -39 6
-38 -20 3 -25 -2 -12 -11 13 -9 13 -10 0 -10 -13 0 -13 -1 0 -11 12 -9 11 -10
-7 -6 -19 4 -21 2 -12 -19 7 -19 5 -28 -11 -41 -16 -14 -17 -20 -7 -32 10 -12
9 -13 -2 -6 -11 6 -13 3 -9 -13 3 -12 3 -21 -1 -20 -19 2 -24 -4 -11 -13 12
-9 10 -10 -9 -5 -18 4 -21 2 -12 -7 14 -14 15 -30 1 -22 -7 4 -9 -3 -6 -19 3
-18 1 -23 -10 -19 -8 3 -14 0 -14 -7 0 -6 -5 -8 -12 -4 -7 4 -8 3 -4 -4 4 -6
14 -9 24 -5 9 3 1 -9 -18 -27 -19 -18 -30 -29 -23 -26 6 3 15 2 18 -4 4 -6 3
-10 -2 -9 -21 4 -31 -2 -29 -19 0 -9 -4 -16 -11 -15 -6 1 -14 -4 -17 -13 -3
-8 -2 -12 3 -9 5 3 13 1 16 -5 4 -6 3 -10 -2 -9 -20 3 -33 -2 -31 -13 2 -7 -4
-12 -12 -13 -9 0 -14 -8 -12 -19 2 -13 -1 -16 -10 -10 -9 5 -8 2 2 -11 9 -11
10 -16 3 -11 -8 4 -13 2 -13 -4 0 -6 -4 -9 -9 -6 -5 3 -15 -2 -22 -12 -13 -16
-13 -16 5 -2 17 13 19 13 14 0 -3 -8 -14 -15 -26 -14 -18 0 -19 -3 -10 -19 7
-14 7 -18 -2 -12 -7 4 -10 1 -8 -11 2 -11 -2 -18 -9 -16 -7 1 -13 -3 -13 -9 0
-8 -6 -7 -17 2 -15 13 -15 12 -5 -8 9 -16 9 -24 0 -29 -7 -4 -8 -3 -4 4 12 19
-3 14 -27 -9 -12 -12 -16 -19 -10 -15 9 5 11 2 7 -8 -3 -9 -11 -14 -17 -13 -7
1 -11 -4 -9 -10 1 -7 -4 -13 -12 -13 -7 0 -16 -9 -19 -21 -3 -12 -10 -18 -16
-14 -6 3 -14 -1 -17 -9 -3 -9 -13 -16 -21 -16 -8 0 -11 -5 -7 -12 5 -8 2 -9
-9 -5 -11 4 -17 1 -17 -9 0 -8 -4 -13 -9 -9 -5 3 -12 1 -16 -5 -4 -6 -11 -7
-17 -4 -7 4 -8 2 -4 -4 4 -6 14 -9 24 -6 14 5 14 4 3 -4 -8 -6 -20 -8 -27 -5
-6 2 -15 -1 -19 -6 -3 -6 -11 -9 -16 -6 -5 3 -6 -1 -3 -9 3 -9 11 -16 17 -16
6 0 8 -3 5 -6 -4 -3 -15 -1 -27 5 -14 8 -22 8 -27 -1 -4 -7 -3 -8 4 -4 7 4 12
2 12 -3 0 -11 -4 -12 -39 -15 -11 0 -23 -5 -28 -10 -5 -5 -3 -6 5 -2 6 4 12 3
12 -3 0 -5 -10 -13 -22 -17 -13 -4 -31 -16 -40 -27 -21 -23 -23 -16 -7 16 l12
22 -20 -20 c-11 -11 -19 -23 -16 -27 2 -5 -1 -8 -7 -8 -6 0 -9 -4 -6 -8 3 -5
-1 -9 -9 -9 -8 0 -12 4 -9 9 3 4 0 8 -5 8 -6 0 -11 -10 -11 -22 0 -17 -3 -19
-9 -10 -7 11 -9 10 -14 -3 -6 -13 -10 -14 -29 -4 -21 11 -22 11 -9 -5 12 -14
12 -16 -4 -10 -12 5 -16 4 -12 -3 5 -7 -1 -9 -15 -5 -15 4 -19 2 -14 -7 5 -8
3 -12 -5 -10 -33 4 -51 -2 -46 -15 4 -10 -3 -12 -24 -10 -22 3 -28 0 -23 -9 6
-9 3 -8 -8 1 -13 10 -18 10 -24 1 -5 -8 -3 -9 6 -4 9 6 11 4 5 -5 -6 -10 -11
-10 -20 3 -11 15 -13 15 -23 -6 -6 -12 -11 -16 -11 -9 -1 6 -6 12 -12 12 -5 0
-7 -5 -4 -10 3 -6 -3 -10 -14 -10 -12 0 -21 -6 -22 -12 0 -10 -2 -10 -6 0 -2
6 -9 12 -15 12 -6 0 -8 -6 -5 -13 3 -8 -1 -14 -9 -14 -7 0 -11 4 -8 9 3 4 0 8
-5 8 -6 0 -11 -4 -11 -9 0 -5 -7 -12 -16 -15 -14 -5 -15 -4 -4 9 11 13 10 14
-4 9 -9 -3 -16 -11 -16 -18 0 -7 -3 -6 -9 2 -6 11 -10 10 -15 -3 -5 -14 -9
-15 -22 -5 -12 11 -17 11 -27 0 -10 -10 -9 -11 2 -5 10 6 12 4 7 -4 -6 -9 -11
-9 -22 0 -7 6 -11 16 -7 23 4 6 -1 5 -10 -2 -9 -8 -21 -11 -26 -7 -6 3 -9 0
-6 -7 4 -9 -4 -14 -25 -16 -23 -2 -29 1 -24 10 6 9 3 9 -9 -1 -19 -15 -80 -24
-71 -10 3 5 10 6 16 3 7 -4 8 -2 4 4 -8 13 -36 5 -36 -11 0 -6 -7 -2 -15 9
-15 19 -15 19 -8 -1 6 -20 6 -20 -16 -1 -17 16 -21 17 -16 4 5 -13 2 -15 -14
-11 -13 3 -21 1 -21 -7 0 -7 -9 -2 -21 11 -11 13 -18 19 -15 13 3 -7 -1 -14
-9 -18 -8 -3 -15 -1 -15 3 0 5 -8 8 -17 7 -10 -2 -24 3 -31 11 -7 7 -18 13
-25 13 -6 0 -3 -6 8 -13 14 -11 15 -16 5 -22 -9 -6 -11 -4 -5 5 6 10 3 12 -13
8 -12 -4 -20 -2 -16 3 8 13 -10 11 -24 -3 -9 -9 -11 -6 -7 10 2 12 0 22 -6 22
-5 0 -9 -8 -9 -17 -1 -17 -1 -17 -14 0 -12 15 -14 16 -20 2 -4 -13 -9 -13 -25
-3 -11 7 -17 16 -14 22 3 5 1 6 -5 2 -20 -12 -53 -16 -46 -5 3 6 -5 8 -21 5
-21 -4 -25 -2 -21 10 3 8 1 12 -4 9 -5 -3 -22 2 -37 12 -15 10 -24 13 -20 7 4
-7 0 -15 -9 -18 -8 -3 -12 -2 -9 4 3 6 0 10 -7 10 -9 0 -9 3 2 10 9 6 10 10 3
10 -6 0 -15 -4 -18 -10 -12 -19 -26 -10 -21 13 3 12 3 16 0 10 -3 -7 -12 -13
-20 -13 -9 0 -12 5 -8 12 5 7 3 8 -7 2 -20 -12 -40 -14 -33 -3 3 5 10 6 16 3
7 -4 8 -2 4 4 -4 6 -14 8 -23 5 -12 -5 -14 -3 -8 8 6 11 5 12 -6 2 -7 -7 -18
-13 -24 -13 -5 0 -3 5 5 10 12 8 9 10 -12 10 -16 0 -28 4 -28 10 0 5 -7 7 -16
3 -14 -5 -15 -3 -4 18 l13 24 -24 -20 c-13 -11 -21 -16 -17 -11 4 5 1 15 -7
22 -18 18 -26 18 -19 -1 4 -8 1 -15 -6 -15 -6 0 -8 5 -5 11 4 6 -2 13 -14 16
-11 3 -18 9 -15 14 2 5 -8 12 -23 15 -34 9 -57 35 -40 46 16 10 -24 5 -40 -5
-8 -5 -11 -1 -8 13 3 17 1 19 -15 10 -17 -9 -22 -6 -35 22 -8 18 -13 26 -11
17 2 -9 -2 -16 -9 -16 -7 0 -11 6 -8 14 3 7 -1 13 -10 13 -17 0 -30 26 -21 43
3 7 -1 4 -9 -6 -13 -16 -15 -15 -27 13 -7 16 -17 30 -22 30 -6 0 -5 -7 2 -15
7 -9 10 -18 8 -21 -3 -3 -12 9 -19 25 -10 21 -21 31 -36 31 -13 0 -23 5 -23
11 0 5 4 8 9 4 5 -3 13 0 17 6 4 8 3 9 -4 5 -7 -4 -12 -3 -12 3 0 5 -10 8 -21
6 -12 -3 -19 -2 -15 2 3 3 1 12 -6 20 -9 11 -7 12 8 7 18 -5 18 -5 0 6 -14 10
-20 9 -28 -1 -6 -10 -7 -7 -3 9 7 23 -4 29 -21 12 -7 -7 -11 -6 -11 4 0 8 4
13 9 10 4 -3 8 0 8 5 0 6 -7 11 -16 11 -8 0 -13 3 -11 8 7 10 -19 32 -28 24
-4 -4 -2 3 4 16 14 26 9 28 -14 6 -14 -15 -15 -14 -11 9 4 21 1 25 -12 20 -15
-6 -16 -5 -2 12 9 11 10 16 3 11 -8 -4 -13 -2 -13 4 0 6 -4 8 -10 5 -5 -3 -10
4 -10 15 0 14 -5 20 -13 17 -8 -3 -14 1 -14 9 0 7 4 11 8 8 4 -2 11 1 15 7 4
8 3 9 -4 5 -7 -4 -12 -2 -12 4 0 6 -5 8 -12 4 -8 -5 -9 -2 -5 9 3 9 1 19 -5
23 -7 4 -8 3 -4 -4 4 -7 2 -12 -3 -12 -6 0 -11 9 -11 19 0 10 -7 21 -15 25 -9
3 -12 12 -8 22 4 12 3 15 -5 10 -8 -5 -12 1 -12 18 0 13 -6 26 -12 29 -10 3
-10 8 2 23 11 15 11 16 0 7 -18 -17 -27 -16 -34 3 -3 8 -2 12 4 9 5 -3 8 3 7
14 -1 16 -4 18 -17 8 -8 -6 -12 -7 -7 -2 4 4 -1 17 -10 28 -10 10 -17 21 -15
23 1 2 2 13 2 25 0 13 -4 18 -12 13 -7 -5 -8 -3 -2 7 14 24 13 40 -3 37 -9 -2
-17 5 -18 15 -2 9 0 15 4 13 4 -3 7 5 6 17 -1 12 -12 28 -26 34 -15 8 -18 13
-8 13 9 0 16 7 16 15 0 11 -4 12 -13 4 -9 -8 -11 -5 -7 13 4 18 3 20 -6 8 -6
-8 -11 -10 -11 -4 0 5 5 15 12 22 8 8 8 12 1 12 -6 0 -10 14 -9 31 1 18 -4 34
-13 39 -14 8 -13 10 4 10 l20 1 -20 9 c-11 5 -14 9 -7 9 6 1 12 6 12 12 0 5
-5 7 -11 4 -6 -4 -10 -1 -8 6 1 8 1 25 0 39 -1 20 -3 22 -11 10 -5 -8 -10 -10
-10 -4 0 5 5 15 12 22 9 9 9 12 -2 12 -9 0 -8 6 6 22 10 12 14 19 9 15 -6 -3
-17 -2 -25 4 -12 7 -11 9 5 9 15 0 17 2 6 9 -9 6 -10 11 -2 15 14 9 14 26 0
26 -5 0 -7 -6 -3 -12 4 -7 3 -10 -1 -5 -11 9 -14 48 -4 42 4 -3 9 2 13 10 3 8
0 17 -6 21 -6 4 -8 3 -5 -3 3 -5 0 -10 -7 -10 -9 0 -10 6 -2 23 6 12 15 20 21
17 5 -2 -1 5 -14 16 -13 12 -18 21 -12 21 6 0 11 19 11 46 0 32 3 43 12 38 7
-5 8 -3 2 7 -11 18 -12 29 -2 57 5 15 4 21 -2 17 -6 -3 -7 1 -4 9 3 9 10 14
14 11 10 -6 7 21 -3 31 -4 4 1 13 11 21 9 8 12 12 6 9 -7 -3 -14 1 -18 9 -3 8
-2 14 2 14 19 -3 26 2 13 10 -10 7 -11 12 -1 27 11 18 11 18 5 -1 -5 -17 -4
-18 7 -7 11 11 10 15 -3 25 -19 14 -3 36 21 30 10 -3 8 0 -3 7 -19 12 -13 34
6 24 7 -3 3 2 -7 10 -17 14 -18 16 -3 16 9 0 17 5 17 11 0 5 -6 7 -12 4 -7 -4
-4 1 6 9 18 15 33 52 17 42 -4 -3 -7 4 -7 14 0 15 4 17 19 8 14 -7 17 -7 12 1
-4 7 -2 18 5 26 8 10 8 15 -1 21 -8 5 -9 3 -4 -6 6 -9 4 -11 -5 -5 -10 6 -7
13 11 27 13 11 18 17 12 13 -19 -9 -16 6 5 21 14 11 15 15 3 23 -11 7 -9 14 9
39 12 16 19 35 16 41 -5 7 -1 9 8 5 12 -4 16 0 16 16 0 17 4 21 17 16 10 -4
14 -4 10 0 -4 4 -1 14 6 22 9 13 9 14 0 8 -19 -11 -16 2 7 26 13 14 20 17 20
8 0 -7 3 -10 6 -7 4 4 1 14 -7 24 -12 15 -12 16 4 10 22 -8 22 2 -1 19 -16 13
-16 14 2 7 15 -5 17 -3 11 8 -7 12 -6 12 7 1 14 -11 16 -10 11 8 -4 15 -2 19
9 15 11 -5 15 0 14 17 -3 31 13 51 29 38 8 -7 12 -5 12 5 0 8 -4 15 -9 15 -4
0 -8 4 -8 9 0 4 11 7 25 6 14 -2 23 1 19 6 -3 5 -10 6 -16 3 -7 -5 -8 -2 -4 5
5 7 15 10 23 6 14 -5 14 -3 2 12 -9 11 -10 14 -1 9 7 -4 12 -2 12 8 0 8 12 24
28 36 15 12 27 25 27 28 0 4 4 6 9 4 5 -2 6 7 3 20 -5 21 -5 21 7 5 12 -16 14
-16 27 -1 8 9 14 24 14 33 0 10 8 16 22 15 18 0 20 2 11 13 -6 7 -8 16 -4 20
3 3 6 1 6 -5 0 -7 5 -12 11 -12 5 0 7 5 4 10 -3 6 1 10 11 10 14 0 15 2 3 17
-13 15 -12 15 8 5 16 -9 24 -9 29 0 5 7 2 9 -7 4 -8 -4 -6 -1 3 7 10 8 14 18
10 23 -4 4 0 3 9 -4 14 -11 17 -10 15 5 -1 13 6 18 22 17 18 -1 20 1 11 12 -6
8 -9 15 -5 15 3 1 9 2 14 3 4 1 13 5 20 9 6 5 18 5 25 1 7 -5 7 -1 -3 12 -8
10 -10 16 -5 11 4 -4 16 0 26 9 10 9 29 17 43 18 14 0 26 6 26 13 0 6 9 10 20
8 13 -2 20 2 20 11 0 9 -5 12 -12 8 -6 -4 -8 -3 -4 4 3 6 18 8 32 6 20 -4 25
-1 21 10 -4 10 -1 13 9 9 7 -3 14 0 14 7 0 6 5 8 10 5 6 -4 7 -11 4 -17 -4 -7
-2 -8 5 -4 6 4 8 12 5 18 -5 8 -1 9 11 4 16 -6 16 -4 4 11 -7 10 -9 15 -5 11
5 -4 16 -2 24 5 13 9 14 9 8 0 -4 -7 -3 -13 2 -13 6 0 13 7 16 16 4 12 10 13
19 6 8 -7 18 -6 31 4 10 7 23 11 27 8 5 -3 6 2 3 10 -3 9 -2 16 4 16 6 0 13
-6 15 -12 3 -8 6 -5 6 5 1 10 6 15 12 12 16 -10 61 4 53 16 -4 8 0 8 14 0 16
-9 23 -8 29 3 4 7 19 17 33 21 23 7 24 7 10 -11 -11 -13 -6 -12 19 6 19 13 32
19 28 14 -3 -6 0 -11 7 -11 8 0 12 6 9 14 -4 10 0 11 18 5 26 -10 52 -5 45 7
-3 4 1 8 9 8 8 0 11 -5 8 -11 -4 -6 3 -3 14 7 18 16 22 16 36 3 13 -14 15 -13
20 4 3 13 11 18 21 14 9 -3 13 -11 10 -16z m-459 -97 c3 -5 2 -12 -3 -15 -5
-3 -9 1 -9 9 0 17 3 19 12 6z m2070 -560 c3 -5 2 -12 -3 -15 -5 -3 -9 1 -9 9
0 17 3 19 12 6z m235 -533 c0 -6 -6 -5 -15 2 -8 7 -15 14 -15 16 0 2 7 1 15
-2 8 -4 15 -11 15 -16z m-95 -18 c-3 -5 -12 -10 -18 -10 -7 0 -6 4 3 10 19 12
23 12 15 0z m95 -864 c0 -2 -8 -10 -17 -17 -16 -13 -17 -12 -4 4 13 16 21 21
21 13z m-3245 -45 c3 -5 2 -12 -3 -15 -5 -3 -9 1 -9 9 0 17 3 19 12 6z m9
-297 c9 -23 4 -24 -16 -2 -14 14 -15 18 -4 18 8 0 17 -7 20 -16z m270 -390 c3
-8 2 -12 -4 -9 -6 3 -10 10 -10 16 0 14 7 11 14 -7z m156 -140 c0 -8 -19 -13
-24 -6 -3 5 1 9 9 9 8 0 15 -2 15 -3z m240 -59 c11 -13 10 -14 -4 -9 -9 3 -16
10 -16 15 0 13 6 11 20 -6z m417 -200 c0 -8 -4 -12 -9 -9 -5 3 -6 10 -3 15 9
13 12 11 12 -6z m84 -112 c13 -16 12 -17 -3 -4 -17 13 -22 21 -14 21 2 0 10
-8 17 -17z m773 -1 c3 -5 -1 -9 -9 -9 -8 0 -12 4 -9 9 3 4 7 8 9 8 2 0 6 -4 9
-8z m-192 -44 c-7 -7 -12 -8 -12 -2 0 14 12 26 19 19 2 -3 -1 -11 -7 -17z"/>
<path d="M2196 3578 c3 -5 10 -6 15 -3 13 9 11 12 -6 12 -8 0 -12 -4 -9 -9z"/>
<path d="M2699 3413 c-13 -16 -12 -17 4 -4 16 13 21 21 13 21 -2 0 -10 -8 -17
-17z"/>
<path d="M1065 3339 c-11 -16 -1 -19 13 -3 7 8 8 14 3 14 -5 0 -13 -5 -16 -11z"/>
<path d="M1015 3299 c-4 -6 -5 -12 -2 -15 2 -3 7 2 10 11 7 17 1 20 -8 4z"/>
<path d="M1660 3148 c0 -17 11 -32 38 -49 22 -14 46 -43 60 -70 32 -65 42
-233 42 -762 l0 -429 -77 64 c-43 36 -154 124 -248 198 -269 211 -294 240
-295 351 0 105 44 187 128 236 42 25 56 28 142 28 78 0 102 -4 135 -22 72 -38
125 -114 125 -178 0 -16 6 -25 15 -25 13 0 15 23 15 143 l0 144 -102 9 c-251
21 -336 9 -435 -58 -163 -111 -212 -373 -98 -529 21 -29 130 -123 290 -250
272 -214 316 -259 360 -366 34 -85 39 -144 21 -232 -37 -177 -159 -285 -354
-313 -182 -27 -363 59 -445 209 -69 129 -54 316 39 465 29 48 34 62 23 69 -18
11 -67 -44 -108 -121 -79 -148 -80 -331 -3 -474 86 -160 289 -255 512 -243
117 7 207 34 289 87 l62 40 -6 -37 c-11 -64 -47 -126 -87 -152 -26 -17 -38
-32 -38 -48 l0 -23 275 0 275 0 0 30 c0 19 -5 30 -14 30 -29 0 -76 52 -93 103
-14 44 -17 107 -21 408 l-4 356 204 6 c121 3 239 12 293 22 435 79 686 342
688 720 1 197 -53 335 -176 452 -86 82 -150 120 -271 162 -167 59 -208 63
-703 68 l-453 5 0 -24z m805 -67 c321 -84 495 -318 495 -663 -1 -227 -87 -408
-243 -509 -123 -79 -257 -109 -494 -109 l-143 0 0 649 c0 510 3 651 13 655 29
14 293 -3 372 -23z"/>
<path d="M760 3086 c0 -2 8 -10 18 -17 15 -13 16 -12 3 4 -13 16 -21 21 -21
13z"/>
<path d="M734 3046 c-10 -8 -17 -16 -14 -19 3 -2 14 4 24 14 23 22 18 25 -10
5z"/>
<path d="M3413 2695 c0 -8 4 -12 9 -9 5 3 6 10 3 15 -9 13 -12 11 -12 -6z"/>
<path d="M478 2655 c-15 -20 -16 -24 -2 -29 9 -3 12 -2 9 5 -4 5 -1 17 6 25 6
8 10 16 8 18 -2 2 -12 -6 -21 -19z"/>
<path d="M3455 2610 c-3 -5 1 -10 10 -10 9 0 13 5 10 10 -3 6 -8 10 -10 10 -2
0 -7 -4 -10 -10z"/>
<path d="M3470 2550 c0 -5 7 -7 15 -4 8 4 15 8 15 10 0 2 -7 4 -15 4 -8 0 -15
-4 -15 -10z"/>
<path d="M3560 2190 c0 -5 5 -10 11 -10 5 0 7 5 4 10 -3 6 -8 10 -11 10 -2 0
-4 -4 -4 -10z"/>
<path d="M3580 2010 c-9 -6 -10 -10 -3 -10 6 0 15 5 18 10 8 12 4 12 -15 0z"/>
<path d="M460 1326 c0 -2 7 -7 16 -10 8 -3 12 -2 9 4 -6 10 -25 14 -25 6z"/>
<path d="M3190 926 c0 -2 7 -7 16 -10 8 -3 12 -2 9 4 -6 10 -25 14 -25 6z"/>
<path d="M3071 784 c0 -11 3 -14 6 -6 3 7 2 16 -1 19 -3 4 -6 -2 -5 -13z"/>
<path d="M1021 644 c0 -11 3 -14 6 -6 3 7 2 16 -1 19 -3 4 -6 -2 -5 -13z"/>
<path d="M2515 450 c3 -5 8 -10 11 -10 2 0 4 5 4 10 0 6 -5 10 -11 10 -5 0 -7
-4 -4 -10z"/>
<path d="M2236 377 c3 -10 9 -15 12 -12 3 3 0 11 -7 18 -10 9 -11 8 -5 -6z"/>
<path d="M1655 370 c3 -5 8 -10 11 -10 2 0 4 5 4 10 0 6 -5 10 -11 10 -5 0 -7
-4 -4 -10z"/>
<path d="M2050 349 c0 -5 5 -7 10 -4 6 3 10 8 10 11 0 2 -4 4 -10 4 -5 0 -10
-5 -10 -11z"/>
<path d="M2075 3720 c3 -5 8 -10 11 -10 2 0 4 5 4 10 0 6 -5 10 -11 10 -5 0
-7 -4 -4 -10z"/>
<path d="M2590 3606 c7 -7 13 -7 20 0 6 6 3 10 -10 10 -13 0 -16 -4 -10 -10z"/>
<path d="M2871 3477 c2 -1 14 -10 26 -20 16 -14 23 -15 29 -6 4 7 3 10 -3 6
-6 -4 -16 0 -23 8 -7 8 -17 15 -23 15 -6 0 -8 -1 -6 -3z"/>
<path d="M3090 3311 c0 -6 4 -13 10 -16 6 -3 7 1 4 9 -7 18 -14 21 -14 7z"/>
<path d="M685 3189 c-4 -6 -5 -12 -2 -15 2 -3 7 2 10 11 7 17 1 20 -8 4z"/>
<path d="M280 1450 c-9 -6 -10 -10 -3 -10 6 0 15 5 18 10 8 12 4 12 -15 0z"/>
<path d="M3626 1442 c-3 -5 1 -9 9 -9 8 0 12 4 9 9 -3 4 -7 8 -9 8 -2 0 -6 -4
-9 -8z"/>
<path d="M3445 1060 c-3 -5 -1 -10 4 -10 6 0 11 5 11 10 0 6 -2 10 -4 10 -3 0
-8 -4 -11 -10z"/>
<path d="M565 910 c3 -5 8 -10 11 -10 2 0 4 5 4 10 0 6 -5 10 -11 10 -5 0 -7
-4 -4 -10z"/>
<path d="M3165 711 c-3 -5 0 -13 6 -17 7 -4 9 -3 5 4 -3 5 0 13 6 15 9 4 10 6
1 6 -6 1 -14 -3 -18 -8z"/>
<path d="M2837 463 c-10 -9 -9 -23 1 -23 5 0 9 7 9 15 0 17 -1 18 -10 8z"/>
<path d="M2765 419 c-4 -6 -5 -12 -2 -15 2 -3 7 2 10 11 7 17 1 20 -8 4z"/>
</g>
</svg>
